<svg width="30" height="30" viewBox="0 0 30 30" fill="none" xmlns="http://www.w3.org/2000/svg">
<g clip-path="url(#clip0_12092_24990)">
<path d="M15 30C23.2843 30 30 23.2843 30 15C30 6.71573 23.2843 0 15 0C6.71573 0 0 6.71573 0 15C0 23.2843 6.71573 30 15 30Z" fill="#a4d65e"/>
<path d="M8.28474 8.25L13.7865 15.696L8.25 21.75H9.49605L14.3433 16.4497L18.2597 21.75H22.5L16.6887 13.8851L21.842 8.25H20.596L16.1319 13.1315L12.5251 8.25H8.28474ZM10.1171 9.17903H12.0652L20.6673 20.8208H18.7193L10.1171 9.17903Z" fill="#005030"/>
</g>
<defs>
<clipPath id="clip0_12092_24990">
<rect width="30" height="30" fill="white"/>
</clipPath>
</defs>
</svg>
