<svg width="30" height="30" viewBox="0 0 30 30" fill="none" xmlns="http://www.w3.org/2000/svg">
<g clip-path="url(#clip0_12092_24991)">
<path d="M15 30C23.2843 30 30 23.2843 30 15C30 6.71573 23.2843 0 15 0C6.71573 0 0 6.71573 0 15C0 23.2843 6.71573 30 15 30Z" fill="#a4d65e"/>
<path fill-rule="evenodd" clip-rule="evenodd" d="M20.1599 9.60001H9.83991C9.13963 9.60001 8.46831 9.87808 7.97327 10.3733C7.47805 10.8683 7.2 11.5398 7.2 12.2401V17.7601C7.2 18.4604 7.47807 19.1317 7.97327 19.6267C8.46831 20.122 9.1398 20.4 9.84008 20.4H20.1601C20.8604 20.4 21.5317 20.1219 22.0267 19.6267C22.5219 19.1317 22.8 18.4602 22.8 17.7599V12.2399C22.8 11.5396 22.5219 10.8683 22.0267 10.3733C21.5317 9.87806 20.8602 9.60001 20.1599 9.60001ZM18.0552 15.1054L13.3752 17.5054C13.3381 17.5245 13.2937 17.5232 13.2581 17.5016C13.2222 17.4802 13.2003 17.4415 13.2 17.3998V12.5998C13.2003 12.5581 13.2222 12.5194 13.2581 12.498C13.2937 12.4764 13.3381 12.4751 13.3752 12.4942L18.0552 14.8942C18.0953 14.9148 18.1205 14.9559 18.1205 15.001C18.1205 15.046 18.0952 15.0872 18.0552 15.1078V15.1054Z" fill="#005030"/>
</g>
<defs>
<clipPath id="clip0_12092_24991">
<rect width="30" height="30" fill="white"/>
</clipPath>
</defs>
</svg>
