<svg width="30" height="30" viewBox="0 0 30 30" fill="none" xmlns="http://www.w3.org/2000/svg">
<g clip-path="url(#clip0_12092_24992)">
<path d="M15 30C23.2843 30 30 23.2843 30 15C30 6.71573 23.2843 0 15 0C6.71573 0 0 6.71573 0 15C0 23.2843 6.71573 30 15 30Z" fill="#a4d65e"/>
<path fill-rule="evenodd" clip-rule="evenodd" d="M18.6076 15.975L19.0409 13.1518H16.3319V11.3197C16.3319 10.5473 16.7103 9.79443 17.9236 9.79443H19.1551V7.39075C19.1551 7.39075 18.0375 7.20001 16.969 7.20001C14.7381 7.20001 13.2799 8.55221 13.2799 11.0001V13.1518H10.8V15.975H13.2799V22.8H16.3319V15.975H18.6076Z" fill="#005030"/>
</g>
<defs>
<clipPath id="clip0_12092_24992">
<rect width="30" height="30" fill="white"/>
</clipPath>
</defs>
</svg>
