<svg xmlns="http://www.w3.org/2000/svg" width="1448" height="104" viewBox="0 0 1448 104" fill="none">
<path d="M1448 271.479L1448 5.5331C1447.1 3.60702 1446.04 2.17584 1443.44 2.85799C1442.58 3.08538 1440.89 2.60386 1440.56 1.94846C1439.65 0.102634 1438.05 0.276517 1436.63 0.223015C1435.11 0.169513 1433.42 1.09242 1432.11 0.664407C1429.85 -0.071247 1428.58 0.664405 1427.25 2.25609C1426.93 2.64398 1425.9 2.71086 1425.29 2.57711C1424.05 2.32297 1422.86 1.84145 1421.66 1.45356C1420.63 1.14593 1419.65 0.450397 1418.71 0.503899C1417.33 0.570777 1414.99 0.905165 1414.8 1.61407C1413.96 4.66369 1412.17 3.33951 1410.47 3.04525C1410.01 2.965 1409.19 3.11213 1409.03 3.41976C1407.03 7.17829 1401.86 7.78019 1400.41 12.0604C1400.36 12.2075 1400.05 12.261 1399.88 12.368C1398.69 13.0903 1397.51 13.8126 1396.05 14.7087C1395.67 14.9093 1395 15.2437 1394.34 15.645C1393.85 15.9526 1393.42 16.5144 1392.89 16.608C1391.58 16.8622 1390.21 16.8755 1388.87 17.0762C1387.38 17.3036 1385.77 18.173 1384.45 17.8386C1380.79 16.9157 1377.94 18.4004 1375.64 20.6742C1372.85 23.4296 1369.81 20.6073 1367.04 21.6506C1366.87 21.7175 1366.61 21.5035 1366.4 21.5035C1365.83 21.5035 1364.92 21.3697 1364.77 21.6239C1363.56 23.8977 1361.21 22.4531 1359.5 23.2557C1358.07 23.9245 1356.07 23.3894 1353.9 23.3894C1353.84 23.2824 1353.56 22.5869 1353.25 21.878C1351.83 22.0519 1350.47 22.1589 1349.13 22.3996C1347.98 22.6136 1346.59 22.6672 1345.76 23.3493C1344 24.7939 1341.95 24.3391 1340.38 23.9378C1338.37 23.4296 1337.04 23.5098 1336 24.9945C1334.35 24.5932 1332.85 24.2187 1331.35 23.8576C1330.73 23.0684 1329.96 22.2793 1329.12 22.1856C1326.28 21.8646 1323.44 21.7844 1320.85 21.6239C1316.89 25.1951 1312.11 24.5397 1307.56 24.2588C1306.85 23.6302 1305.97 22.6939 1305.26 22.8009C1302.51 23.1888 1299.58 21.9984 1296.97 23.6302C1296.79 23.7372 1296.38 23.4162 1296.16 23.4964C1294.56 24.1518 1292.55 21.5436 1291.31 24.3391C1290.54 23.7773 1289.92 23.3359 1289.3 22.8945C1289.3 23.0952 1289.33 23.3092 1289.34 23.5098C1287.77 23.8576 1286.21 24.406 1284.64 24.4862C1283.84 24.5263 1283.02 23.4697 1282.17 23.3894C1278.63 23.0818 1274.56 25.9308 1273.21 29.7963C1271.51 29.4887 1269.77 29.1944 1268.02 28.8333C1264.67 28.1377 1261.73 29.7027 1258.65 30.4785C1257.66 30.7192 1256.76 31.3077 1255.77 31.4816C1253.12 31.9364 1250.44 32.2574 1247.78 32.6453C1247.03 32.7523 1245.87 33.2338 1245.59 32.9128C1243.07 30.1842 1239.74 32.7122 1236.88 31.5619C1236.02 31.2141 1233.36 30.8931 1232.11 32.779C1231.94 33.0332 1230.89 32.7523 1230.26 32.6587C1229.76 32.5918 1229.21 32.2306 1228.82 32.3644C1226.74 33.0733 1224.26 31.2676 1222.39 33.3542C1222.33 33.4211 1222.11 33.3943 1221.97 33.3542C1219.86 32.9663 1217.75 32.6319 1215.66 32.1771C1213.36 31.6823 1211.06 31.1874 1208.84 30.4785C1206.68 29.7963 1204.63 28.7798 1202.49 28.0441C1201.22 27.6161 1199.76 27.0142 1198.55 27.2683C1196.26 27.7365 1195.4 25.8371 1194.07 24.941C1192.41 23.8308 1191.2 22.0519 1189.75 20.6207C1189.49 20.3666 1188.81 20.1927 1188.55 20.3532C1186.93 21.343 1185.84 20.2194 1184.87 19.3366C1182.52 17.1832 1180.11 15.752 1176.73 16.8354C1175.34 17.2768 1173.79 17.1966 1172.31 17.2099C1171.19 17.2099 1170.08 16.9959 1169.56 16.9424C1167.8 16.287 1166.54 15.4577 1165.23 15.4042C1162.25 15.2705 1160.05 13.4514 1157.5 12.3947C1156.48 11.9801 1155.39 11.6591 1154.31 11.4986C1153.03 11.3113 1151.73 11.4183 1150.44 11.2712C1148.08 11.0037 1145.72 10.696 1143.38 10.2948C1142.84 10.2011 1142.39 9.626 1141.88 9.27823C1140.04 8.04768 1138.2 6.81714 1136.33 5.62671C1134.22 4.26241 1132.02 5.15857 1129.86 5.46621C1127.45 5.81397 1125.06 6.33562 1122.64 6.62988C1121.28 6.80376 1119.9 6.65663 1118.53 6.69676C1116.69 6.75026 1114.84 6.75026 1113.01 6.95089C1110.32 7.24515 1107.77 9.01072 1104.89 7.72667C1104.42 7.52604 1103.79 7.63304 1103.24 7.7133C1101.66 7.91393 1100.09 8.15469 1098.52 8.4222C1095.23 8.99735 1091.59 8.23494 1089.01 11.4584C1088.29 12.368 1086.5 12.9431 1085.19 11.4049C1084.88 11.0304 1084.15 10.8967 1083.6 10.8565C1082.42 10.7763 1081.21 10.8298 1080.03 10.8298C1079.33 11.5521 1078.49 12.2342 1077.59 12.3011C1075.92 12.4215 1074.11 11.726 1072.58 12.1673C1069.05 13.1705 1065.71 12.9298 1062.27 11.9667C1061.22 11.6725 1059.6 11.6056 1058.93 12.1941C1056.71 14.1603 1054.54 13.0234 1052.42 12.475C1050.16 11.8865 1048.01 12.3145 1046.67 14.0533C1045.61 13.5852 1044.61 12.9164 1043.52 12.6756C1040.62 12.0336 1037.69 11.5387 1034.77 11.0572C1034.3 10.9769 1033.56 11.0572 1033.32 11.3381C1031.8 13.2508 1030.23 12.1673 1028.6 11.5922C1025.19 10.375 1021.81 8.99734 1018.32 8.10118C1014.41 7.09802 1010.2 8.07443 1006.31 6.28211C1005.21 5.77384 1003.45 6.71013 1002 6.97764C1002 7.20502 1002.02 7.41903 1002.02 7.64641C1000.71 7.09802 999.366 6.02797 998.077 6.08148C995.191 6.18848 992.613 3.17899 989.593 5.27894C989.539 5.31907 989.338 5.17194 989.217 5.09169C987.727 4.08852 986.828 4.93118 986.103 6.10823C983.901 5.38595 981.793 4.7038 979.927 6.80376C979.605 7.1649 978.719 7.41903 978.303 7.24515C975.672 6.16173 973.068 8.56932 970.45 7.28527C970.262 7.19164 969.833 7.55279 969.524 7.69992C968.155 8.38207 966.772 9.06422 965.403 9.75975C964.745 10.0941 964.114 10.4687 963.469 10.8164C963.523 10.9368 963.59 11.0572 963.644 11.1776C962.248 11.0839 960.838 10.9769 959.295 10.8699L959.295 12.5419C957.321 13.5049 955.683 14.3743 953.979 15.0832C953.093 15.4443 952.099 15.5915 951.133 15.6851C950.045 15.7921 948.757 15.3641 947.911 15.8189C946.421 16.608 945.333 16.18 944.085 15.4978C942.461 14.6151 938.151 15.2437 936.675 16.3271C935.99 16.822 935.064 17.0628 934.205 17.2367C933.426 17.3972 932.594 17.2768 931.789 17.3437C930.956 17.3972 930.124 17.5309 929.292 17.6246C928.446 18.1997 927.533 18.5742 926.58 18.8417C925.68 19.0959 924.687 19.0825 923.855 19.4436C922.647 19.9786 921.425 21.45 920.418 21.2895C918.713 21.0086 917.505 21.7308 916.109 22.1455C915.572 22.306 914.981 22.4264 914.431 22.3862C912.565 22.2257 910.713 21.8379 908.847 21.8379C907.746 21.8379 906.645 22.4397 905.531 22.7073C904.148 23.0283 902.752 23.2824 901.369 23.59C900.819 23.7104 900.027 23.6703 899.772 24.0181C898.107 26.2652 895.865 27.6562 893.342 28.6861C892.563 29.0071 891.811 29.395 891.127 29.8632C888.563 31.5752 886.213 33.7421 883.421 34.9057C881.434 35.735 880.079 37.0726 878.589 38.3299C875.085 41.2859 872.4 43.0916 868.319 41.6604C866.762 41.112 865.661 41.2725 865.299 43.0648C862.855 42.2623 860.506 41.4865 858.17 40.7375C857.982 40.6706 857.687 40.6572 857.539 40.7642C855.566 42.2222 853.781 41.5534 851.995 40.0553C851.056 42.1553 849.418 41.5935 848.035 41.1387C847.297 40.898 846.29 39.9216 846.29 39.2795C846.303 37.3401 845.042 37.407 843.82 37.3133C843.202 37.2598 842.545 37.5006 841.967 37.3535C837.242 36.1898 835.752 36.8051 833.43 40.9649C833.363 41.0852 833.215 41.1521 833.43 40.9782C831.107 40.0419 828.959 39.1725 826.825 38.3031C827 38.1292 827.174 37.9687 827.348 37.7949C826.758 36.9388 826.181 36.0694 825.563 35.2401C825.026 34.5179 824.449 33.8089 823.858 33.1268C823.415 32.6185 822.986 32.0568 822.435 31.7224C821.227 30.9867 819.938 30.3982 818.703 29.716C816.341 28.3919 814.22 28.646 812.179 30.6122C808.635 28.1511 805.078 30.5052 801.547 30.3447C800.742 29.8498 799.856 29.6893 799.05 29.3415C797.198 28.5524 795.627 29.3683 793.963 29.9568C789.949 31.3746 785.814 30.037 781.747 30.3447C781.357 30.3714 780.713 30.3179 780.619 30.5052C779.505 32.672 777.37 30.6256 776.028 31.6689C774.095 29.4218 771.92 33.9427 770 31.4548C770 31.4415 769.866 31.495 769.651 31.5886C769.423 32.0166 769.128 32.5516 768.953 32.8727C767.248 32.244 765.53 30.96 764.228 31.2943C762.725 31.6822 761.61 33.5147 760.429 34.6115C760.322 34.2503 760.161 33.6618 759.919 32.8192C758.254 34.0765 756.885 35.1197 755.516 36.163C750.911 37.9955 746.132 36.4974 740.655 35.6681C740.602 35.8019 740.293 36.4707 739.971 37.1796C739.299 36.5509 738.95 36.2834 738.682 35.949C736.091 32.6586 733.514 31.923 729.889 34.0497C729.164 34.4777 728.063 34.2637 726.99 34.3707C725.567 36.9388 724.546 36.6713 722.076 35.7618C721.633 35.6013 721.123 35.2 720.761 35.307C719.459 35.6949 718.385 35.9356 718.089 34.1032C718.062 33.9159 717.337 33.7287 716.935 33.7019C714.518 33.5816 712.089 33.5949 709.686 33.3675C707.887 33.1937 706.276 31.6689 704.289 32.5918C704.209 32.6319 704.048 32.4714 703.913 32.3911C702.101 31.388 700.289 30.3982 698.49 29.3683C698.315 29.2746 698.208 29.0473 698.074 28.8867C696.168 26.5594 695.08 26.6397 693.107 29.2479C691.442 27.5492 691.415 27.6161 685.804 26.225C684.274 25.8371 683.28 25.6632 683.267 26.8403C681.951 27.7231 681.133 28.2581 680.529 28.6594C680.206 27.8836 680.086 26.5327 679.374 26.0913C677.374 24.8206 675.132 23.911 672.984 22.8544C670.501 25.2887 667.829 24.4461 666.165 20.3398C664.688 20.7277 663.158 21.1824 661.614 21.5168C660.943 21.664 660.218 21.6238 659.533 21.5436C657.815 21.3296 656.11 21.0353 654.083 20.7277C653.425 19.4035 653.412 19.2965 651.411 19.5506C650.15 19.7111 648.941 20.2863 647.693 20.5805C646.847 20.7812 645.961 20.8213 644.887 20.9551C645.451 21.878 645.921 22.6537 646.404 23.4162C646.283 23.59 646.176 23.7639 646.055 23.9378C644.498 20.8347 641.679 21.8512 639.464 21.9047C638.31 22.413 637.155 22.9213 635.92 23.4697C636.041 23.8174 636.189 24.2454 636.43 24.9142C634.953 25.0881 633.155 25.8639 632.443 25.3021C628.443 22.092 624.147 23.3894 619.905 24.1251C617.851 24.4862 615.851 25.2218 613.878 25.9174C611.663 26.6932 609.474 27.5358 607.34 28.4988C605.474 29.3415 603.903 30.9332 601.648 30.7326C599.5 30.5453 598.238 31.6421 597.46 33.2338C595.768 32.5249 594.104 31.8294 592.412 31.1338C592.063 31.709 591.795 32.1504 591.352 32.8593C587.942 28.325 584.13 31.4281 580.29 31.7759C580.492 32.5249 580.653 33.1134 580.881 33.9561C579.807 33.3274 578.975 32.8459 577.941 32.244C577.377 33.2605 576.894 34.1433 576.357 35.1064C573.001 32.993 569.538 34.7452 565.98 35.2134C565.913 34.7185 565.833 34.1567 565.752 33.5815C562.919 34.1032 560.53 33.528 559 31.9765C557.805 32.3242 557.013 32.5383 555.764 32.8994C555.617 33.0733 555.107 33.7287 554.852 34.0631C552.69 33.3408 550.891 32.7389 548.824 32.0567L548.824 34.1834C547.67 33.7019 546.703 33.3809 545.804 32.9395C542.273 31.2141 538.81 30.1039 535.628 33.6083C535.48 33.7688 535.091 33.7153 534.823 33.7822C534.044 33.9694 533.266 34.1701 532.487 34.3573C532.675 35.0796 532.876 35.8019 533.131 36.7783C530.957 35.7484 529.023 34.5713 526.929 33.9026C524.15 33.0198 521.211 32.6586 518.392 31.8695C514.928 30.8931 511.384 33.4478 507.921 31.4415C506.968 30.8931 505.612 31.0402 504.444 30.8663C501.772 31.2542 497.678 29.7428 497.302 34.1567C495.221 34.1567 493.315 34.1032 491.409 34.1701C490.107 34.2102 488.187 32.8058 487.892 35.5611C487.865 35.7618 487.153 35.9891 486.737 36.0293C485.69 36.1496 484.603 36.0293 483.596 36.2834C482.187 36.6178 480.844 37.2464 479.448 37.6477C478.508 37.9152 477.421 37.7948 476.589 38.2095C474.951 39.0521 472.91 38.9184 471.568 40.6171C470.977 41.3527 469.179 40.684 468.695 42.2355C468.655 42.3693 467.756 42.4763 467.487 42.289C465.5 40.8846 463.352 41.9145 461.299 41.861C460.292 41.8342 459.003 41.9011 458.305 42.4763C457.338 43.2788 456.05 43.7068 455.298 44.4023C452.479 47.0106 449.109 45.245 446.102 46.0475C444.988 46.3418 443.444 46.0074 442.411 45.4055C438.625 43.1852 434.974 40.7776 430.235 42.1553C429.899 42.2489 429.51 42.3559 429.188 42.289C428.101 42.0884 426.986 41.9145 425.966 41.5132C425.161 41.1922 424.503 40.5368 423.671 39.9617C422.865 38.477 422.181 36.4707 420.878 35.0127C418.288 32.1102 414.891 30.3045 410.904 30.7326C408.743 30.9599 406.676 32.1236 404.582 32.8994C403.776 33.1937 402.997 33.5949 402.205 33.9427C402.232 33.8357 402.259 33.7153 402.273 33.6083L396.675 33.6083C396.675 33.6083 396.715 33.4879 396.742 33.4344C393.587 33.0599 390.432 32.672 387.251 32.2975C387.372 30.7326 384.902 28.1778 382.888 28.4587C380.163 28.8332 377.451 28.4186 375.115 27.6696C372.525 26.8403 370.645 28.1109 368.43 28.0708C368.35 25.8237 365.531 23.3091 363.087 23.3626C362.416 23.376 361.611 23.1888 361.087 22.8009C358.416 20.8079 355.798 22.0251 353.301 23.0015C352.187 23.4295 351.395 24.6868 350.281 25.7435C348.697 25.262 345.77 25.9174 345.381 27.2148C344.763 29.3014 343.488 29.5421 341.636 29.0205C339.246 28.3517 336.83 27.8301 334.427 27.2148C330.306 26.1715 326.198 25.0881 322.077 24.0582C321.553 23.9244 320.909 23.8174 320.425 23.9779C319.016 24.446 317.741 24.5263 316.371 23.7104C315.74 23.3359 314.599 22.9212 314.546 24.5129C314.546 24.6601 314.062 24.9142 313.834 24.8874C312.666 24.7537 311.512 24.5531 310.223 24.3524C307.095 28.9001 302.544 27.6027 298.101 26.3588C297.309 28.2447 297.296 28.2714 295.577 27.7231C293.55 27.081 291.631 26.8536 290.275 28.9536C287.362 27.6161 284.61 26.1046 281.428 27.7498C281.401 28.2313 281.361 28.8198 281.321 29.4752C273.038 26.3587 269.749 27.7766 267.481 31.7758C265.427 30.8797 263.212 31.1071 261.104 32.4446C258.782 33.9293 256.473 35.4274 254.137 36.8987C252.969 37.6343 251.707 38.2496 250.593 39.0388C250.123 39.3731 249.828 40.0152 249.6 40.5769C248.901 42.289 248.257 44.0145 247.599 45.7533C245.733 45.352 244.31 45.6998 243.169 45.2718C241.652 44.6966 240.243 43.6667 238.994 42.5966C237.048 40.9247 234.779 40.6304 232.363 40.4298C230.9 40.3094 229.463 39.868 228.027 39.4935C227.195 39.2795 226.416 38.905 225.597 38.6642C224.134 38.2362 222.536 38.0891 221.879 36.2968C221.758 35.9624 220.912 35.6681 220.442 35.7216C217.986 35.9758 215.542 36.3101 213.113 36.6847C212.482 36.7783 211.435 36.9522 211.354 37.2732C210.925 39.0521 209.609 38.2095 208.629 38.4101C207.649 38.6107 206.696 38.9852 205.729 39.2929C204.83 39.4935 203.769 39.1324 202.749 39.1859C201.675 39.2394 200.588 40.0687 199.581 39.9483C195.876 39.5069 193.232 42.4361 189.795 42.7839C189.459 42.824 189.043 43.0247 188.855 43.2922C186.331 46.7966 182.412 44.1482 179.405 45.459C176.572 43.3457 173.686 46.422 170.8 45.4323C170.437 45.3119 169.779 46.0475 168.786 46.7163C167.565 45.5794 166.236 44.1883 164.745 43.0113C163.108 41.7272 161.631 40.0419 159.027 41.5533C157.376 42.5164 155.295 42.7839 153.389 43.3189C151.442 43.8807 149.482 44.4023 147.871 44.8437C147.079 44.3622 146.435 43.6934 145.723 43.6266C144.394 43.4928 142.824 44.1883 141.723 43.7068C139.199 42.6234 136.769 41.9279 134.044 42.6769C133.722 42.7705 133.306 42.5431 132.742 42.4361C134.031 41.3393 135.816 40.5636 136.004 39.5069C136.353 37.5139 133.655 38.049 132.836 36.9655C131.48 35.1866 129.896 35.9891 128.353 36.1363C127.493 36.2165 126.634 36.3636 125.815 36.6044C124.889 36.8719 124.003 37.2866 122.62 37.8216C120.097 36.4974 117.063 34.9057 114.029 33.314C114.029 33.3809 114.029 33.4611 114.016 33.528C113.009 32.7389 111.989 31.9497 110.861 31.0669C111.411 28.7262 111.143 28.4052 108.31 28.0976C107.572 28.0173 106.86 27.5625 106.136 27.3352C105.531 27.1479 104.914 26.9606 104.296 26.9071C103.223 26.8001 102.135 26.7868 101.048 26.7333C100.927 26.4524 100.82 26.1715 100.699 25.8772C100.323 26.5861 99.9604 27.295 99.5846 27.9906C99.0073 24.339 98.4167 23.9378 95.2083 24.6333C93.4766 25.0212 91.6106 25.6632 89.9729 25.3422C87.3015 24.8206 84.9522 22.9346 81.9855 23.4563C81.8513 23.483 81.6365 23.2155 81.5022 23.0416C80.4686 21.8779 79.4483 20.7009 78.2536 19.3366C77.2736 19.3366 75.8909 19.1761 74.5619 19.3767C72.6154 19.671 72.347 18.6411 72.2127 17.1162C72.1456 16.3538 71.6623 15.043 71.2462 15.0029C69.8232 14.829 68.1989 14.7622 66.9504 15.3106C64.91 16.1933 63.6615 16.0328 62.5742 14.1603C61.8627 12.9163 61.017 11.7259 60.0504 10.6692C59.7148 10.3081 58.7751 10.161 58.2516 10.3349C55.4996 11.2578 55.1506 12.3412 56.493 15.5513C56.0903 15.5513 55.5668 15.6984 55.4325 15.5246C53.6471 13.3176 50.7341 13.8526 48.5325 12.6756C47.3377 12.0469 45.8745 11.9265 44.6395 11.338C43.0823 10.6024 41.2298 9.94696 40.2364 8.67629C37.5784 5.2789 35.3365 4.48975 31.9402 6.56295C29.1749 8.24827 26.49 10.0941 23.7381 11.8062C23.3756 12.0335 22.6373 12.1138 22.3151 11.8998C20.4357 10.6024 19.7914 12.2342 18.6906 13.1437C17.9791 13.7322 16.7978 14.2004 15.9252 14.0666C14.019 13.7991 12.1933 13.0501 10.3139 12.6221C8.79699 12.2877 7.23978 12.0603 5.69601 11.9533C4.72947 11.8864 3.73608 12.3412 2.78296 12.2476C-0.277745 11.9399 -1.78125 13.1437 -1.78125 16.1265L-1.78126 325.181C-0.720756 324.78 0.0578442 324.486 0.836445 324.192C0.84987 324.392 0.876719 324.593 0.890143 324.794C1.93723 324.74 2.98431 324.687 4.0314 324.66C5.17245 324.62 6.47459 324.245 7.42771 324.66C11.0522 326.185 14.5828 326.546 18.2073 324.807C18.6235 324.606 19.4826 324.446 19.59 324.606C20.8116 326.466 22.9729 326.024 24.6509 326.573C26.3155 327.121 28.262 326.653 29.94 327.576C30.1414 327.683 30.5038 327.536 30.7992 327.482C31.6583 327.295 32.5175 327.081 33.4169 326.88C33.8599 329.943 36.0346 330.879 38.9074 329.662C39.3906 330.077 39.8605 330.492 40.4646 331C41.5519 328.485 45.257 330.157 45.9819 327.228C46.1027 327.281 46.2101 327.335 46.3309 327.375C48.5728 327.897 50.7609 327.616 52.9759 327.148C54.4257 326.84 55.7547 326.599 54.4391 324.098C58.3455 324.606 61.7016 324.325 63.7689 322.56C67.2995 323.282 70.2528 324.58 73.0047 324.218C75.3808 323.911 76.9514 324.941 78.7234 325.609C81.0592 326.479 82.2943 326.559 83.7441 324.994C84.4824 325.235 85.4086 325.837 85.7174 325.609C87.2209 324.473 88.0935 325.489 88.8452 326.265C89.852 326.051 90.738 326.024 91.4764 325.676C92.9262 324.981 94.6042 324.392 95.6244 323.255C97.5038 321.155 98.6046 320.781 100.658 322.225C101.679 322.105 102.793 321.918 103.612 322.332C105.612 323.362 107.317 323.51 109.545 322.56C110.901 321.971 113.21 321.463 114.512 323.683C114.781 324.138 115.949 324.152 116.7 324.232C117.546 324.325 118.405 324.259 119.023 324.259C120.607 321.45 123.56 322.319 125.708 321.543C127.48 320.901 129.708 321.463 131.722 321.624C132.366 321.677 133.051 322.078 133.561 322.506C135.038 323.71 136.662 323.376 137.414 321.583C140.219 322.506 139.991 319.122 141.804 318.868C143.213 319.015 144.582 318.855 145.938 318.681C146.583 318.601 147.281 318.333 147.871 318.467C149.858 318.948 151.858 319.47 153.778 320.166C155.724 320.875 157.496 320.808 159.242 319.684C160.584 318.828 163.027 319.189 164.249 320.393C167.215 323.296 170.357 325.864 174.934 324.753C178.384 323.924 181.995 324.994 185.405 323.724C185.862 323.55 186.546 323.737 187.056 323.951C188.399 324.486 189.298 324.646 190.198 322.988C191.017 321.463 192.533 320.286 193.809 319.029C194.077 318.761 194.668 318.654 195.071 318.721C196.923 319.042 198.735 319.497 200.588 319.805C202.776 320.152 204.991 320.42 207.193 320.674C208.401 320.808 209.609 320.808 211.354 320.901C212.052 320.326 213.22 318.962 214.683 320.433C219.06 318.173 223.597 317.089 228.121 316.514C227.973 314.869 227.879 313.745 227.718 312.007C229.356 312.234 230.765 312.207 232 312.649C233.437 313.144 234.712 314.013 236.296 313.184C236.524 313.063 236.994 313.264 237.276 313.424C238.31 314.04 239.263 314.815 240.337 315.324C241.451 315.845 242.673 316.113 243.894 316.514C245.344 314.548 247.277 314.294 249.949 315.524C250.808 315.912 251.922 315.912 252.915 315.845C253.936 315.778 254.929 315.417 255.922 315.19C256.486 314.374 257.386 313.184 257.99 313.317C259.802 313.705 261.722 313.184 263.265 313.585C266.192 314.347 268.957 312.675 271.749 313.679C271.884 313.732 272.112 313.438 272.313 313.411C273.414 313.237 274.528 313.13 275.616 312.943C276.408 312.809 277.186 312.595 277.737 312.461C278.972 311.873 279.831 311.498 280.65 311.044C282.542 310.014 284.382 308.903 286.274 307.914C288.113 306.951 290.02 306.108 291.859 305.158C293.241 304.449 294.584 303.647 295.94 302.884C295.658 302.697 295.389 302.497 295.107 302.309C296.383 301.801 297.631 301.253 298.92 300.811C303.806 299.113 308.706 297.441 313.297 295.876C313.982 296.371 314.559 297.079 314.868 296.972C317.002 296.277 318.143 297.294 319.177 298.979C319.821 300.035 320.828 300.758 321.929 299.3C322.6 298.404 323.258 297.507 324.023 296.491C328.977 295.715 330.883 300.29 334.225 302.858C334.373 302.055 334.494 301.413 334.548 301.146C337.192 300.37 339.568 299.648 341.958 298.979C342.374 298.858 342.857 298.845 343.287 298.912C345.891 299.327 348.697 301.186 350.71 297.708C350.871 297.427 351.663 297.507 352.16 297.4C353.006 297.213 353.852 297.066 354.684 296.812C356.281 296.33 357.852 295.782 359.436 295.274C359.839 296.05 360.134 296.611 360.537 297.414C362.121 296.571 363.678 296.09 365.423 296.986C366.175 297.374 367.249 297.146 367.786 297.173C369.732 297.534 371.303 297.842 372.471 298.056C373.572 296.651 374.377 295.635 375.089 294.725C376.512 296.21 377.505 297.253 378.498 298.297C378.525 298.043 378.552 297.775 378.579 297.521C380.337 296.946 382.109 296.384 383.868 295.795C384.485 295.595 385.13 295.408 385.694 295.087C389.761 292.773 391.104 293.241 392.755 297.481C393.359 299.019 394.231 300.035 395.963 298.685C396.352 298.377 396.836 298.176 397.225 297.855C398.514 296.812 399.641 295.22 401.105 294.819C402.756 294.364 404.474 294.605 405.186 292.559C405.28 292.304 405.964 292.171 406.38 292.157C408.139 292.064 410.032 292.559 411.414 290.913C411.522 290.78 412.005 290.82 412.22 290.94C414.703 292.411 417.093 291.609 419.254 290.713C420.046 291.154 420.65 291.743 421.308 291.823C423.724 292.117 426.167 292.171 428.584 292.465C429.295 292.545 430.168 292.973 430.571 293.522C432.477 296.13 436.115 296.651 438.652 294.565C439.417 293.936 440.263 293.428 441.337 292.692C442.666 294.324 444.169 295.715 445.082 297.414C446.935 300.851 449.767 301.253 452.036 298.377C453.794 298.925 455.459 299.447 457.177 299.995C457.795 298.457 458.345 296.865 460.466 297.294C461.997 297.601 463.191 297.079 464.238 295.983C464.48 295.729 464.937 295.595 465.312 295.528C466.306 295.367 467.326 295.287 467.836 295.234C469.595 295.782 471.031 296.21 472.454 296.678C472.763 296.785 473.031 296.999 473.286 297.213C474.723 298.404 476.079 299.714 477.609 300.771C478.616 301.467 479.864 302.149 481.045 302.202C483.959 302.336 486.939 301.774 489.825 302.122C492.778 302.47 495.49 301.881 498.282 301.279C498.685 301.186 499.088 301.092 499.504 301.052C501.571 300.865 503.625 300.651 505.692 300.544C506.498 300.504 507.464 300.49 508.082 300.892C509.719 301.948 511.102 302.604 513.089 301.4C514.297 300.664 515.975 300.691 517.962 300.276C518.512 299.193 520.875 297.922 522.701 298.604C524.795 299.393 527.117 300.156 528.688 301.627C531.024 303.807 533.386 304.503 536.179 303.433C536.971 302.416 538.085 300.945 538.877 301.092C540.192 301.346 541.307 302.644 542.501 303.5C543.602 303.54 545.2 301.788 546.179 304.516C546.22 304.61 546.448 304.73 546.542 304.704C548.824 303.955 549.589 305.546 550.234 307.205C551.938 306.175 553.563 306.349 555.523 307.258C556.382 307.66 557.496 307.472 558.463 307.646C559.429 307.82 560.839 307.807 561.241 308.422C562.436 310.201 564.383 310.201 566.007 310.87C568.517 311.9 570.209 310.843 569.913 308.77C571.699 306.563 573.968 306.001 576.612 306.442C577.538 306.59 578.505 306.469 579.458 306.469C579.485 306.309 579.512 306.135 579.539 305.961C579.995 306.469 580.465 306.991 580.706 307.272C582.076 306.817 583.177 306.402 584.318 306.081C585.687 305.707 587.271 305.733 588.398 305.025C590.332 303.807 591.889 301.868 594.574 303.018C594.681 303.072 594.909 303.045 594.976 302.965C595.983 301.734 596.99 302.269 598.225 302.684C600.386 303.406 602.172 302.63 602.48 301.172C604.95 302.189 604.937 302.176 607.327 301.921C607.595 301.895 607.904 302.002 608.159 302.122C609.528 302.791 610.857 303.526 612.24 304.142C612.736 304.369 613.435 304.57 613.891 304.383C615.757 303.647 617.395 304.182 619.086 304.958C620.214 305.479 621.476 305.707 622.617 306.215C623.61 306.67 624.644 307.178 625.409 307.927C626.966 309.425 629.262 310.094 630.268 312.221C630.389 312.475 631.007 312.595 631.41 312.622C632.9 312.715 634.39 312.742 635.893 312.809C637.571 312.876 639.263 312.956 640.941 313.01C641.142 313.01 641.424 312.943 641.531 312.796C643.048 310.87 644.686 311.779 646.525 312.836C647.237 311.712 648.23 310.749 648.472 309.612C648.834 307.887 649.532 307.379 651.264 307.486C652.445 307.566 653.734 307.205 654.835 306.723C655.425 306.469 655.613 305.225 656.19 305.011C658.083 304.342 660.057 303.767 662.043 303.486C664.648 303.098 667.346 303.219 669.333 301.039C670.42 299.848 671.414 298.404 672.783 297.681C673.655 297.213 675.414 297.401 676.273 298.002C679.065 299.995 681.656 301.841 685.401 300.397C687.133 299.728 688.073 298.925 687.925 297.213C690.784 296.397 693.617 295.782 695.751 298.644C695.886 298.818 696.302 298.778 696.584 298.872C699.832 300.022 703.873 298.176 705.551 295.688C708.706 296.09 711.82 297.026 714.854 295.354C715.874 295.381 716.975 295.421 717.673 294.913C719.069 293.909 720.251 293.776 720.949 294.592C722.278 294.525 723.043 294.431 723.808 294.471C726.896 294.659 730.01 294.993 732.547 293C734.413 294.284 736.185 295.528 738.091 296.839C738.883 294.431 741.326 293.682 744.065 294.538C744.83 293.08 745.609 291.609 746.361 290.164C748.146 290.566 749.327 292.906 751.529 291.529C751.65 291.462 751.958 291.622 752.133 291.729C754.496 293.294 757.006 294.311 759.932 294.404C761.436 294.445 763.436 293.615 763.785 292.184C764.577 288.947 766.993 288.118 769.638 290.084C770.229 290.525 771.155 290.512 772.417 290.846C773.397 292.184 776.807 293.094 777.961 291.743C779.263 290.218 780.78 290.204 782.512 290.472C786.015 290.994 789.6 291.208 793.01 292.09C794.432 292.452 795.735 292.866 797.198 292.746C797.252 292.746 797.332 292.813 797.386 292.853C800.097 294.632 803.051 294.832 806.165 294.257C807.4 294.03 808.649 293.669 809.817 294.846C810.353 295.381 811.521 295.394 812.407 295.421C814.3 295.488 816.247 295.153 818.086 295.474C820.596 295.902 822.784 294.953 825.04 294.338C826.463 293.95 827.697 292.759 829.12 292.492C831.349 292.077 833.685 292.197 835.967 291.997C836.692 291.93 837.403 291.368 838.101 291.395C839.806 291.489 841.511 292.01 843.202 291.943C844.612 291.903 845.404 292.077 846.115 293.441C846.639 294.445 847.887 295.073 848.908 295.956C849.351 294.859 849.633 294.177 849.74 293.936C852.801 294.685 852.358 299.3 856.613 299.032C858.237 298.925 859.983 300.584 861.567 301.386C862.184 300.999 862.775 300.611 863.379 300.249C864.064 299.835 864.748 299.46 865.554 298.992C867.044 300.798 868.775 302.309 871.447 300.571C871.648 300.437 872.266 300.718 872.548 300.958C874.051 302.269 875.488 303.647 876.991 304.958C877.944 305.787 878.87 306.83 880.011 307.232C882.32 308.034 884.723 308.195 886.254 306.67C888.12 306.817 889.529 307.044 890.939 307.031C893.261 307.004 895.61 305.894 897.892 307.539C898.349 307.86 900.175 307.312 900.362 306.804C901.047 304.931 902.457 304.396 904.121 303.941C904.98 303.7 905.772 303.246 906.766 302.818C907.705 303.901 908.739 304.008 910.028 302.884C910.551 302.416 911.679 302.711 912.404 302.376C913.827 301.734 916.27 303.727 916.713 300.918C917.827 300.637 918.874 300.397 919.881 300.089C921.116 299.714 922.298 299.086 923.559 298.899C924.687 298.738 926.003 299.407 927.023 299.072C929.278 298.323 930.808 298.765 931.493 300.276C932.903 300.718 933.789 300.932 934.608 301.279C935.453 301.641 936.541 302.724 937.01 302.483C938.232 301.868 938.756 302.59 939.4 303.179C940.675 304.356 941.843 305.667 943.186 306.777C943.884 307.352 944.81 307.726 945.696 308.021C946.367 308.248 947.199 308.034 947.817 308.328C949.535 309.131 950.81 308.328 952.153 307.419C952.435 307.633 952.703 307.887 952.999 308.074C955.63 309.746 958.18 309.251 958.986 306.175C959.026 306.028 959.335 305.974 959.509 305.854C960.046 305.519 960.57 305.185 960.597 305.158C965.067 305.319 968.772 303.66 972.866 303.112C974.101 303.66 975.632 304.356 977.176 305.051C977.874 306.349 978.424 307.9 979.431 309.077C980.209 310 981.512 310.549 982.679 310.99C982.854 311.057 983.552 309.599 984.089 308.903C984.814 307.967 985.821 306.228 986.317 306.349C987.969 306.75 988.438 305.907 989.257 304.918C989.767 304.302 990.841 303.941 991.7 303.861C993.889 303.647 996.104 303.727 998.292 303.553C999.567 303.46 1000.82 303.125 1002.08 302.898C1002.9 302.724 1003.82 303.085 1004.68 302.978C1007.51 302.59 1010.63 303.42 1013.09 301.132C1013.37 300.865 1014.24 300.918 1014.66 301.159C1017.34 302.737 1019.85 301.868 1022.11 300.437C1023.23 299.728 1023.72 299.888 1024.71 300.504C1026.54 301.641 1027.7 303.834 1030.32 303.781C1031.76 303.754 1033.22 304.262 1035.03 304.597C1036.34 303.955 1038 302.283 1040.05 303.888C1041.76 305.225 1043.46 305.453 1045.36 304.61C1047.54 303.633 1049.72 302.604 1051.93 301.587C1052.4 302.015 1052.91 302.483 1053.29 302.831C1054.28 302.189 1055.06 301.373 1055.98 301.172C1057.51 300.825 1059.13 300.851 1060.73 300.744C1061.6 300.691 1062.77 301.012 1063.28 300.571C1064.24 299.741 1064.84 298.471 1065.73 297.173C1066.88 296.451 1068.31 295.421 1069.86 294.592C1071.88 293.508 1074.02 291.743 1076.06 291.796C1079.19 291.89 1081.98 293.856 1084.53 295.809C1085.15 296.29 1086.02 296.652 1086.78 296.665C1087.51 296.678 1088.85 296.25 1088.89 295.902C1089.05 294.418 1090.1 294.899 1090.81 294.873C1091.95 294.819 1093.09 294.939 1094.23 295.006C1098.06 295.247 1101.9 294.792 1105.6 296.785C1106.88 297.467 1109.51 299.393 1110.96 296.397C1111.65 296.865 1112.2 297.334 1112.84 297.641C1114.28 298.337 1115.74 298.965 1117.19 299.621C1117.32 299.674 1117.47 299.795 1117.59 299.768C1120.55 299.006 1122.69 300.477 1124.88 302.162C1127.02 303.807 1129.3 303.152 1130.29 300.918C1132.67 302.283 1135.16 301.881 1137.7 301.587C1139.37 301.4 1141.07 301.547 1142.75 301.547C1143.49 301.641 1144.35 301.239 1144.82 300.584C1145.64 299.42 1146.45 298.965 1148.01 299.046C1149.72 299.139 1151.47 298.537 1153.19 298.176C1154.29 297.936 1155.39 297.227 1156.44 297.334C1158.29 297.521 1159.7 297.026 1161.1 295.889C1162.23 294.966 1163.5 294.19 1164.82 293.548C1165.56 293.187 1166.5 293.241 1167.36 293.107C1167.41 292.826 1167.46 292.559 1167.52 292.278C1168.56 292.973 1169.58 293.709 1170.66 294.351C1171.75 295.006 1172.89 295.996 1174.03 296.036C1174.99 296.063 1175.95 294.819 1176.99 294.391C1177.87 294.043 1178.94 293.776 1179.83 293.95C1182.27 294.445 1184.66 295.18 1187.06 295.822C1187.26 295.729 1187.46 295.622 1187.68 295.528C1186.03 293.615 1185.95 291.943 1187.71 290.592C1189.81 290.994 1191.84 291.234 1193.76 291.81C1195.65 292.371 1197.43 293.294 1199.47 294.15C1200 294.15 1201.02 293.856 1201.71 294.204C1203.86 295.287 1205.87 296.625 1207.94 297.842C1208.59 298.23 1209.28 298.564 1209.92 298.979C1211.17 299.781 1212.3 299.126 1213.49 298.792C1214.82 298.417 1216.26 298.417 1217.54 297.936C1218.78 297.467 1219.79 296.611 1221.28 297.387C1222.7 298.123 1224.38 298.364 1225.79 299.126C1228.29 300.477 1230.65 302.069 1233.2 303.62C1234.77 302.55 1236.64 302.47 1238.53 302.176C1241.43 301.721 1241.01 305.078 1243.08 305.158C1242.38 307.312 1244.3 309.746 1246.34 309.171C1247.82 308.756 1248.28 309.398 1248.97 310.241C1250.3 311.846 1251.78 311.779 1253.58 310.789C1254.92 310.067 1256.32 309.345 1258.09 309.265C1259.35 309.198 1261.16 310.589 1262.17 308.636C1262.83 307.365 1263.78 307.379 1264.92 307.9C1266.29 308.516 1267.55 308.689 1268.91 307.619C1270.56 306.309 1272.1 304.556 1274.63 305.078C1274.87 305.132 1275.39 304.851 1275.39 304.811C1275.03 302.804 1277.46 303.313 1278 301.895C1278.41 300.771 1279.66 299.862 1280.72 299.099C1282.62 297.735 1284.66 296.545 1286.63 295.287C1287.02 295.046 1287.42 294.552 1287.78 294.592C1289.74 294.766 1291.54 295.194 1292.97 296.852C1294.08 298.15 1295.52 299.246 1296.98 300.116C1297.56 300.464 1298.74 300.209 1299.45 299.848C1301.01 299.046 1302.5 298.444 1304.16 299.42C1305.29 300.089 1306.38 301.32 1307.52 301.36C1309.05 301.413 1311.13 301.025 1312.04 300.009C1313.83 298.016 1313.8 297.722 1316.2 299.273C1317.21 298.19 1318.23 297.093 1319.44 295.782C1319.64 295.809 1320.26 295.902 1320.87 295.996L1320.65 295.434C1321.57 294.913 1322.63 293.816 1323.41 293.976C1326.43 294.632 1326.41 294.779 1327.92 292.144C1329.92 291.194 1332.3 295.006 1333.91 291.341C1334.59 291.542 1335.21 291.716 1335.91 291.917C1336.15 291.275 1336.37 290.699 1336.7 289.803C1338.23 290.98 1339.94 291.756 1340.84 293.08C1343.31 296.692 1343.47 296.932 1347.37 296.264C1347.63 296.812 1348.06 297.829 1348.08 297.815C1349.72 297.173 1350.51 298.685 1351.71 299.139C1354.26 300.102 1356.89 300.865 1359.51 301.694C1359.99 301.841 1360.49 302.002 1360.99 302.028C1362.19 302.082 1363.72 301.614 1364.54 302.176C1366.5 303.513 1367.95 302.844 1369.68 301.908C1370.22 301.627 1371.17 302.176 1371.95 302.269C1373.94 302.497 1376.16 303.607 1377.39 300.905C1379.81 302.39 1382.17 303.5 1384.71 301.346C1385.57 302.363 1386.36 303.433 1387.28 304.369C1391.42 308.542 1395.54 307.151 1399.38 304.142C1400.44 303.313 1401.77 302.59 1403.08 302.336C1406.61 301.641 1410.19 301.226 1413.97 300.664C1413.7 299.367 1413.55 298.618 1413.39 297.869C1413.57 297.976 1413.73 298.083 1413.9 298.19C1414.56 297.24 1415.19 296.29 1415.88 295.354C1416.12 295.033 1416.43 294.618 1416.78 294.552C1420.86 293.722 1424.95 292.946 1429.07 292.157C1429.14 291.823 1429.22 291.047 1429.48 290.338C1429.77 289.522 1430.24 288.773 1430.6 287.984C1431.64 285.777 1433.89 284.935 1435.88 286.165C1437.25 287.021 1438.51 287.128 1439.48 285.831C1440.43 284.56 1440.83 282.835 1441.92 281.738C1443.46 280.173 1443.14 278.621 1442.71 277.056C1443.28 276.214 1443.69 275.344 1444.32 274.716C1445.48 273.565 1446.77 272.549 1448 271.479Z" fill="#005030"/>
</svg>