<svg width="30" height="30" viewBox="0 0 30 30" fill="none" xmlns="http://www.w3.org/2000/svg">
<g clip-path="url(#clip0_12092_24993)">
<path d="M15 30C23.2843 30 30 23.2843 30 15C30 6.71573 23.2843 0 15 0C6.71573 0 0 6.71573 0 15C0 23.2843 6.71573 30 15 30Z" fill="#a4d65e"/>
<path fill-rule="evenodd" clip-rule="evenodd" d="M14.7025 11.146C12.4037 11.146 10.5496 13.0001 10.5496 15.2989C10.5496 17.5976 12.4037 19.4518 14.7025 19.4518C17.0012 19.4518 18.8554 17.5976 18.8554 15.2989C18.8554 13.0001 17.0012 11.146 14.7025 11.146ZM14.7025 17.9988C13.217 17.9988 12.0026 16.788 12.0026 15.2989C12.0026 13.8098 13.2134 12.599 14.7025 12.599C16.1916 12.599 17.4024 13.8098 17.4024 15.2989C17.4024 16.788 16.188 17.9988 14.7025 17.9988ZM19.9939 10.9761C19.9939 11.5146 19.5602 11.9448 19.0252 11.9448C18.4867 11.9448 18.0566 11.511 18.0566 10.9761C18.0566 10.4412 18.4903 10.0075 19.0252 10.0075C19.5602 10.0075 19.9939 10.4412 19.9939 10.9761ZM22.7444 11.9592C22.683 10.6617 22.3866 9.51229 21.436 8.56533C20.4891 7.61837 19.3397 7.322 18.0421 7.25694C16.7048 7.18104 12.6965 7.18104 11.3592 7.25694C10.0653 7.31838 8.9159 7.61476 7.96532 8.56172C7.01475 9.50868 6.72198 10.658 6.65692 11.9556C6.58102 13.2929 6.58102 17.3012 6.65692 18.6385C6.71837 19.9361 7.01475 21.0855 7.96532 22.0324C8.9159 22.9794 10.0616 23.2758 11.3592 23.3408C12.6965 23.4167 16.7048 23.4167 18.0421 23.3408C19.3397 23.2794 20.4891 22.983 21.436 22.0324C22.383 21.0855 22.6794 19.9361 22.7444 18.6385C22.8203 17.3012 22.8203 13.2965 22.7444 11.9592ZM21.0168 20.0734C20.7348 20.7818 20.1891 21.3276 19.477 21.6131C18.4108 22.036 15.8808 21.9384 14.7025 21.9384C13.5242 21.9384 10.9905 22.0324 9.92791 21.6131C9.2195 21.3312 8.67373 20.7855 8.3882 20.0734C7.96532 19.0072 8.06291 16.4772 8.06291 15.2989C8.06291 14.1206 7.96893 11.5869 8.3882 10.5243C8.67012 9.8159 9.21589 9.27013 9.92791 8.9846C10.9941 8.56172 13.5242 8.65931 14.7025 8.65931C15.8808 8.65931 18.4144 8.56533 19.477 8.9846C20.1854 9.26652 20.7312 9.81229 21.0168 10.5243C21.4396 11.5905 21.342 14.1206 21.342 15.2989C21.342 16.4772 21.4396 19.0108 21.0168 20.0734Z" fill="#005030"/>
</g>
<defs>
<clipPath id="clip0_12092_24993">
<rect width="30" height="30" fill="white"/>
</clipPath>
</defs>
</svg>
