<svg width="30" height="30" viewBox="0 0 30 30" fill="none" xmlns="http://www.w3.org/2000/svg">
<g clip-path="url(#clip0_12092_24994)">
<path d="M15 30C23.2843 30 30 23.2843 30 15C30 6.71573 23.2843 0 15 0C6.71573 0 0 6.71573 0 15C0 23.2843 6.71573 30 15 30Z" fill="#a4d65e"/>
<path fill-rule="evenodd" clip-rule="evenodd" d="M10.8262 23.3997H7.46759V12.584H10.8262V23.3997ZM9.14509 11.1086C8.07111 11.1086 7.2 10.2191 7.2 9.1451C7.2 8.07086 8.07084 7.20001 9.14509 7.20001C10.2193 7.20001 11.0902 8.07086 11.0902 9.1451C11.0902 10.2191 10.2187 11.1086 9.14509 11.1086ZM23.3964 23.3997H20.045V18.1347C20.045 16.8799 20.0197 15.2707 18.2988 15.2707C16.5526 15.2707 16.285 16.634 16.285 18.0442V23.3997H12.93V12.584H16.1512V14.0593H16.1982C16.6466 13.2096 17.7419 12.3128 19.376 12.3128C22.7751 12.3128 23.4 14.5511 23.4 17.4584V23.3997H23.3964Z" fill="#005030"/>
</g>
<defs>
<clipPath id="clip0_12092_24994">
<rect width="30" height="30" fill="white"/>
</clipPath>
</defs>
</svg>
